<?xml version="1.0" standalone="no"?>
<!DOCTYPE svg PUBLIC "-//W3C//DTD SVG 20010904//EN"
 "http://www.w3.org/TR/2001/REC-SVG-20010904/DTD/svg10.dtd">
<svg version="1.0" xmlns="http://www.w3.org/2000/svg"
 width="90.000000pt" height="90.000000pt" viewBox="0 0 90.000000 90.000000"
 preserveAspectRatio="xMidYMid meet">

<g transform="translate(0.000000,90.000000) scale(0.100000,-0.100000)"
fill="#000000" stroke="none">
<path d="M650 760 c-25 -11 -58 -22 -74 -25 l-29 -6 5 -67 c7 -92 47 -181 106
-233 25 -21 53 -39 64 -39 10 0 41 22 67 48 56 56 91 136 98 229 6 62 6 62
-23 68 -16 4 -54 15 -85 26 -66 23 -71 22 -129 -1z m98 -187 c-47 -48 -54 -50
-80 -26 -25 22 -23 36 5 29 18 -4 31 3 57 29 26 27 36 32 47 23 11 -9 6 -19
-29 -55z"/>
<path d="M40 640 c-19 -19 -20 -33 -20 -257 0 -131 4 -243 8 -249 21 -31 54
-34 429 -34 326 0 382 2 401 16 21 15 22 21 22 185 0 106 -4 169 -10 169 -6 0
-10 -60 -10 -159 0 -122 -3 -161 -14 -170 -9 -8 -123 -10 -402 -9 l-389 3 0
245 0 245 223 3 c188 2 222 5 222 17 0 13 -32 15 -220 15 -207 0 -221 -1 -240
-20z"/>
<path d="M112 508 l3 -63 68 -3 67 -3 0 66 0 65 -70 0 -71 0 3 -62z m108 2 l0
-40 -40 0 -40 0 0 40 0 40 40 0 40 0 0 -40z"/>
<path d="M310 560 c0 -6 43 -10 110 -10 67 0 110 4 110 10 0 6 -43 10 -110 10
-67 0 -110 -4 -110 -10z"/>
<path d="M310 455 c0 -12 17 -15 95 -15 78 0 95 3 95 15 0 12 -17 15 -95 15
-78 0 -95 -3 -95 -15z"/>
<path d="M130 195 c0 -13 23 -15 145 -15 122 0 145 2 145 15 0 13 -23 15 -145
15 -122 0 -145 -2 -145 -15z"/>
</g>
</svg>
