<?xml version="1.0" standalone="no"?>
<!DOCTYPE svg PUBLIC "-//W3C//DTD SVG 20010904//EN"
 "http://www.w3.org/TR/2001/REC-SVG-20010904/DTD/svg10.dtd">
<svg version="1.0" xmlns="http://www.w3.org/2000/svg"
 width="90.000000pt" height="90.000000pt" viewBox="0 0 90.000000 90.000000"
 preserveAspectRatio="xMidYMid meet">

<g transform="translate(0.000000,90.000000) scale(0.100000,-0.100000)"
fill="#000000" stroke="none">
<path d="M42 704 c-21 -15 -22 -20 -22 -210 0 -123 4 -194 10 -194 6 0 10 -9
10 -19 0 -24 36 -51 68 -51 14 0 36 -13 52 -30 18 -19 38 -30 55 -30 17 0 37
11 55 30 l28 30 172 0 172 0 28 -30 c37 -39 73 -39 110 0 15 17 36 30 47 30
32 0 63 29 63 59 0 16 -7 31 -15 35 -11 4 -15 23 -15 78 0 62 -5 83 -37 150
l-36 78 -69 0 c-66 0 -68 1 -68 25 0 14 -9 34 -20 45 -19 19 -33 20 -293 20
-230 0 -276 -2 -295 -16z m566 -16 c8 -8 12 -57 12 -155 l0 -143 -290 0 -290
0 0 139 c0 114 3 143 16 155 13 14 53 16 278 16 190 0 265 -3 274 -12z m72
-158 l0 -80 80 0 80 0 0 -65 0 -65 -95 0 -95 0 0 145 c0 122 2 145 15 145 12
0 15 -16 15 -80z m118 15 c18 -36 32 -68 32 -70 0 -3 -29 -5 -65 -5 l-65 0 0
70 0 70 33 0 c30 0 35 -5 65 -65z m-178 -200 l0 -25 -290 0 -290 0 0 25 0 25
290 0 290 0 0 -25z m-470 -66 c-15 -26 -83 -24 -88 4 -3 14 4 17 48 17 48 0
50 -1 40 -21z m510 1 c-10 -19 -21 -20 -190 -20 -169 0 -180 1 -190 20 -11 20
-8 20 190 20 198 0 201 0 190 -20z m208 3 c-5 -28 -64 -30 -78 -4 -10 20 -8
21 35 21 39 0 46 -3 43 -17z m-623 -38 c0 -25 -4 -31 -27 -33 -19 -2 -28 2
-33 18 -8 27 12 52 39 48 16 -2 21 -10 21 -33z m510 0 c0 -27 -3 -30 -30 -30
-21 0 -31 5 -33 18 -5 25 17 49 42 45 16 -2 21 -10 21 -33z"/>
<path d="M90 580 c0 -6 65 -10 176 -10 114 0 173 3 169 10 -8 14 -345 14 -345
0z"/>
<path d="M90 490 c0 -6 40 -10 100 -10 60 0 100 4 100 10 0 6 -40 10 -100 10
-60 0 -100 -4 -100 -10z"/>
</g>
</svg>
