<?xml version="1.0" standalone="no"?>
<!DOCTYPE svg PUBLIC "-//W3C//DTD SVG 20010904//EN"
 "http://www.w3.org/TR/2001/REC-SVG-20010904/DTD/svg10.dtd">
<svg version="1.0" xmlns="http://www.w3.org/2000/svg"
 width="90.000000pt" height="90.000000pt" viewBox="0 0 90.000000 90.000000"
 preserveAspectRatio="xMidYMid meet">

<g transform="translate(0.000000,90.000000) scale(0.100000,-0.100000)"
fill="#000000" stroke="none">
<path d="M255 835 c-27 -26 -34 -82 -13 -103 9 -9 -9 -12 -84 -12 -116 0 -128
-8 -128 -81 0 -56 13 -89 35 -89 13 0 15 -34 15 -224 0 -191 2 -227 16 -240
13 -14 58 -16 334 -16 276 0 321 2 334 16 14 13 16 49 16 240 0 190 2 224 15
224 22 0 35 33 35 89 0 73 -12 81 -125 81 l-93 0 14 29 c17 35 7 71 -28 95
-45 32 -106 8 -138 -54 -11 -22 -24 -40 -28 -40 -4 0 -19 20 -34 45 -41 68
-100 84 -143 40z m85 -15 c10 -5 30 -30 44 -55 l25 -46 -61 3 c-53 3 -64 7
-81 30 -19 25 -19 28 -3 52 17 27 45 33 76 16z m256 -16 c16 -24 16 -27 -3
-52 -17 -23 -29 -27 -77 -30 -31 -2 -56 1 -56 5 0 13 41 77 58 91 26 20 60 14
78 -14z m202 -171 l3 -53 -370 0 -371 0 0 48 c0 27 3 52 7 55 4 4 169 6 367 5
l361 -3 3 -52z m-48 -308 l0 -225 -320 0 -320 0 0 225 0 225 320 0 320 0 0
-225z"/>
</g>
</svg>
