<?xml version="1.0" standalone="no"?>
<!DOCTYPE svg PUBLIC "-//W3C//DTD SVG 20010904//EN"
 "http://www.w3.org/TR/2001/REC-SVG-20010904/DTD/svg10.dtd">
<svg version="1.0" xmlns="http://www.w3.org/2000/svg"
 width="90.000000pt" height="90.000000pt" viewBox="0 0 90.000000 90.000000"
 preserveAspectRatio="xMidYMid meet">

<g transform="translate(0.000000,90.000000) scale(0.100000,-0.100000)"
fill="#000000" stroke="none">
<path d="M64 698 c-39 -18 -44 -50 -44 -258 0 -212 5 -240 47 -259 33 -15 733
-15 766 0 42 19 47 47 47 259 0 212 -5 240 -47 259 -32 15 -739 14 -769 -1z
m366 -158 l0 -140 -190 0 -190 0 0 120 c0 167 -9 160 210 160 l170 0 0 -140z
m401 119 c11 -11 19 -30 17 -42 -3 -22 -6 -22 -190 -25 l-188 -2 0 45 0 45
170 0 c158 0 171 -1 191 -21z m19 -129 l0 -30 -190 0 -190 0 0 30 0 30 190 0
190 0 0 -30z m0 -100 l0 -30 -190 0 -190 0 0 30 0 30 190 0 190 0 0 -30z m-2
-97 l3 -33 -400 0 -401 0 0 28 c0 16 3 32 7 35 4 4 182 6 397 5 l391 -3 3 -32z
m2 -78 c0 -8 -9 -24 -20 -35 -19 -19 -33 -20 -380 -20 -347 0 -361 1 -380 20
-11 11 -20 27 -20 35 0 13 51 15 400 15 349 0 400 -2 400 -15z"/>
<path d="M129 597 c-20 -15 -13 -37 11 -37 22 0 33 25 17 38 -8 7 -17 6 -28
-1z"/>
<path d="M230 596 c-13 -17 -6 -36 15 -36 19 0 26 27 11 39 -10 8 -17 7 -26
-3z"/>
<path d="M333 599 c-16 -16 -5 -39 18 -39 22 0 25 22 6 39 -10 8 -16 8 -24 0z"/>
<path d="M123 509 c-15 -15 -5 -39 17 -39 22 0 32 24 17 39 -6 6 -14 11 -17
11 -3 0 -11 -5 -17 -11z"/>
<path d="M233 509 c-14 -14 -6 -39 12 -39 18 0 26 27 11 39 -9 7 -16 7 -23 0z"/>
<path d="M333 509 c-16 -16 -5 -39 18 -39 22 0 25 22 6 39 -10 8 -16 8 -24 0z"/>
</g>
</svg>
