<?xml version="1.0" standalone="no"?>
<!DOCTYPE svg PUBLIC "-//W3C//DTD SVG 20010904//EN"
 "http://www.w3.org/TR/2001/REC-SVG-20010904/DTD/svg10.dtd">
<svg version="1.0" xmlns="http://www.w3.org/2000/svg"
 width="90.000000pt" height="90.000000pt" viewBox="0 0 90.000000 90.000000"
 preserveAspectRatio="xMidYMid meet">

<g transform="translate(0.000000,90.000000) scale(0.100000,-0.100000)"
fill="#000000" stroke="none">
<path d="M278 735 c-3 -3 -1 -25 5 -49 30 -133 -63 -269 -194 -282 -84 -9 -86
-11 -54 -44 15 -16 40 -34 56 -40 21 -9 32 -23 39 -50 14 -53 43 -86 93 -105
37 -14 81 -16 298 -13 241 3 256 4 289 25 42 26 80 88 80 129 -1 79 -95 161
-171 149 -32 -6 -38 -3 -64 31 -38 49 -101 76 -172 73 l-56 -3 -19 51 c-24 65
-109 149 -130 128z m299 -216 c28 -13 52 -35 65 -59 22 -38 23 -38 73 -33 90
9 145 -39 145 -127 0 -32 -7 -48 -34 -78 l-34 -37 -271 -3 c-299 -3 -320 0
-354 57 -28 48 -23 56 36 57 112 3 217 101 217 203 0 16 6 32 13 34 30 13 104
6 144 -14z"/>
</g>
</svg>
