<?xml version="1.0" standalone="no"?>
<!DOCTYPE svg PUBLIC "-//W3C//DTD SVG 20010904//EN"
 "http://www.w3.org/TR/2001/REC-SVG-20010904/DTD/svg10.dtd">
<svg version="1.0" xmlns="http://www.w3.org/2000/svg"
 width="90.000000pt" height="90.000000pt" viewBox="0 0 90.000000 90.000000"
 preserveAspectRatio="xMidYMid meet">

<g transform="translate(0.000000,90.000000) scale(0.100000,-0.100000)"
fill="#000000" stroke="none">
<path d="M135 616 c-100 -44 -143 -169 -92 -267 27 -50 107 -99 161 -99 63 0
149 55 219 138 l27 34 28 -34 c77 -93 165 -144 233 -135 177 24 230 246 82
347 -81 55 -198 27 -293 -70 l-50 -51 -50 51 c-83 85 -188 120 -265 86z m188
-53 c44 -30 107 -98 107 -114 0 -26 -92 -118 -142 -143 -64 -32 -101 -33 -158
-3 -131 66 -103 266 43 296 44 10 105 -5 150 -36z m461 14 c40 -26 70 -85 70
-137 0 -63 -29 -109 -84 -138 -56 -29 -111 -25 -175 12 -41 24 -125 116 -125
136 0 14 48 67 92 101 70 56 160 66 222 26z"/>
</g>
</svg>
